<svg xmlns="http://www.w3.org/2000/svg" xmlns:xlink="http://www.w3.org/1999/xlink" aria-hidden="true" role="img" class="iconify iconify--logos" width="35.93" height="32" preserveAspectRatio="xMidYMid meet" viewBox="0 0 256 228"><path fill="#00D8FF" d="M210.483 134.481c0 12.34-9.994 22.333-22.333 22.333s-22.333-9.994-22.333-22.333c0-.826.055-1.636.142-2.437c-2.038 2.27-3.315 5.228-3.315 8.437c0 6.443 5.224 11.667 11.667 11.667s11.667-5.224 11.667-11.667c0-3.209-1.277-6.167-3.315-8.437c.087.801.142 1.611.142 2.437Z"></path><path fill="#00D8FF" d="M128 90.333c0-12.34 9.994-22.333 22.333-22.333s22.333 9.994 22.333 22.333c0 .826-.055 1.636-.142 2.437c2.038-2.27 3.315-5.228 3.315-8.437c0-6.443-5.224-11.667-11.667-11.667s-11.667 5.224-11.667 11.667c0 3.209 1.277 6.167 3.315 8.437c-.087-.801-.142-1.611-.142-2.437Z"></path><path fill="#00D8FF" d="M68.183 156.852c0 12.34-9.994 22.333-22.333 22.333s-22.333-9.994-22.333-22.333c0-.826.055-1.636.142-2.437c-2.038 2.27-3.315 5.228-3.315 8.437c0 6.443 5.224 11.667 11.667 11.667s11.667-5.224 11.667-11.667c0-3.209-1.277-6.167-3.315-8.437c.087.801.142 1.611.142 2.437Z"></path><path fill="#00D8FF" d="M45.85 134.481c0-12.34-9.994-22.333-22.333-22.333S1.184 122.141 1.184 134.481c0 .826.055 1.636.142 2.437c-2.038-2.27-3.315-5.228-3.315-8.437c0-6.443 5.224-11.667 11.667-11.667s11.667 5.224 11.667 11.667c0 3.209-1.277 6.167-3.315 8.437c.087-.801.142-1.611.142-2.437Z"></path><path fill="#00D8FF" d="M128 178.667c-12.34 0-22.333 9.994-22.333 22.333s9.994 22.333 22.333 22.333s22.333-9.994 22.333-22.333c0-.826-.055-1.636-.142-2.437c2.038 2.27 3.315 5.228 3.315 8.437c0 6.443-5.224 11.667-11.667 11.667s-11.667-5.224-11.667-11.667c0-3.209 1.277-6.167 3.315-8.437c-.087.801-.142 1.611-.142 2.437Z"></path><path fill="#00D8FF" d="M210.483 134.481c0-12.34 9.994-22.333 22.333-22.333s22.333 9.994 22.333 22.333c0 .826-.055 1.636-.142 2.437c2.038-2.27 3.315-5.228 3.315-8.437c0-6.443-5.224-11.667-11.667-11.667s-11.667 5.224-11.667 11.667c0 3.209 1.277 6.167 3.315 8.437c-.087-.801-.142-1.611-.142-2.437Z"></path><path fill="#00D8FF" d="M128 0C57.308 0 0 50.259 0 112c0 61.742 57.308 112 128 112c70.693 0 128-50.258 128-112C256 50.259 198.692 0 128 0Zm0 208c-52.935 0-96-43.065-96-96S75.065 16 128 16s96 43.065 96 96s-43.065 96-96 96Z"></path></svg>
