<svg width="805" height="589" viewBox="0 0 805 589" fill="none" xmlns="http://www.w3.org/2000/svg">
<g filter="url(#filter0_d_75_156)">
<path d="M691.358 173.926C704.584 167.896 715.743 165.574 724.637 167.443L725.491 167.636L725.497 167.637L725.504 167.64C732.694 169.453 738.012 174.366 741.498 182.011C744.881 189.431 745.894 197.404 744.573 205.872L744.571 205.883C743.219 214.213 739.924 222.514 734.742 230.779L734.738 230.786L734.734 230.792C729.524 238.961 722.901 246.608 714.884 253.738L714.878 253.744L714.872 253.749C707.228 260.438 698.817 266.222 689.645 271.103C690.813 274.752 691.86 277.577 692.785 279.607C696.256 287.219 700.324 291.173 704.762 292.328L705.193 292.431L705.207 292.434L705.221 292.437C709.376 293.408 715.435 292.309 723.652 288.562C735.395 283.208 745.006 275.957 752.525 266.821L752.534 266.811C755.747 262.96 758.643 258.824 761.22 254.402C763.793 249.841 766.689 244.249 769.909 237.617L770.223 236.969L785.982 229.784L784.999 233.793C780.512 252.076 773.177 268.371 762.981 282.654L762.976 282.661C750.368 300.144 733.894 313.516 713.596 322.77C697.084 330.299 682.655 333.125 670.429 330.913L670.425 330.911C657.263 328.501 647.49 320.037 641.076 305.969C638.676 300.706 636.755 294.573 635.295 287.589C633.723 280.633 632.867 273.363 632.725 265.783L632.725 265.781C632.575 257.282 633.419 248.781 635.257 240.283L635.262 240.261C637.215 231.684 640.281 223.498 644.456 215.707L644.457 215.704C654.159 197.646 669.845 183.735 691.358 173.926ZM701.753 189.423C698.222 191.033 695.116 193.995 692.493 198.511C689.949 203.028 687.947 208.604 686.522 215.279C685.272 221.484 684.622 228.2 684.581 235.431C684.545 241.705 684.991 247.864 685.916 253.909C690.759 251.089 695.162 247.602 699.124 243.438C703.749 238.578 707.408 233.315 710.115 227.649C712.79 221.893 714.312 216.174 714.71 210.482C715.068 204.743 714.159 199.55 712.022 194.863C710.596 191.736 709.044 189.971 707.52 189.155L707.465 189.126L707.411 189.092C706.193 188.338 704.444 188.197 701.753 189.423Z" fill="#F20000" stroke="black" stroke-width="4"/>
<path d="M554.992 238.74L555.411 241.326L557.385 253.483C561.512 247.133 565.174 242.145 568.368 238.55L568.375 238.541L568.382 238.533C574.45 231.852 581.132 226.822 588.436 223.492C595.902 220.088 603.004 219.263 609.632 221.269L609.631 221.269C612.613 222.161 615.235 223.616 617.467 225.64L617.872 226.008C619.87 227.873 621.456 230.106 622.632 232.686C623.788 235.222 624.357 237.917 624.342 240.748C624.328 243.607 623.662 246.451 622.389 249.265L622.377 249.291L622.365 249.317C620.891 252.338 618.728 255.154 615.927 257.773L615.926 257.772C613.194 260.377 609.84 262.569 605.897 264.367C602.856 265.753 600.09 266.561 597.656 266.631C595.265 266.701 593.057 266.193 591.098 265.051L591.051 265.024L591.007 264.994C589.393 263.932 588.033 262.744 586.967 261.418L586.494 260.865C584.217 258.227 582.61 256.851 581.627 256.376C581.205 256.214 580.451 256.169 579.131 256.77C574.666 258.806 571.31 261.183 568.967 263.852C566.593 266.554 563.789 270.536 560.552 275.85L576.925 381.72L577.156 383.217L525.547 406.747L525.146 404.134L503.636 263.754L503.406 262.259L554.992 238.74Z" fill="#F20000" stroke="black" stroke-width="4"/>
<path d="M387.991 313.414C397.058 309.28 404.654 307.237 410.647 307.593L410.646 307.594C413.944 307.716 416.787 308.444 419.037 309.854L417.879 302.88L417.628 301.368L469.251 277.832L469.653 280.442L484.354 375.82L484.37 375.926L484.375 376.031C484.496 378.622 485.156 381.267 486.391 383.975C487.826 387.123 489.755 388.754 492.1 389.322C494.56 389.918 497.881 389.445 502.232 387.461C507.768 384.937 511.897 380.527 514.596 374.051L514.599 374.045C516.889 368.602 517.825 361.85 517.293 353.707L517.202 352.329L535.269 344.092L535.23 347.244C535.041 362.792 532.375 376.352 527.165 387.867L527.16 387.878L527.154 387.89C522.671 397.466 516.443 405.733 508.481 412.677L508.477 412.68C502.616 417.762 495.923 422.014 488.412 425.439C478.781 429.83 469.986 431.488 462.112 430.158L462.075 430.151C455.362 428.886 449.732 425.406 445.197 419.851C442.085 428.031 438.188 435.226 433.49 441.417L433.489 441.416C426.625 450.598 417.572 457.737 406.381 462.839C393.455 468.732 381.442 470.559 370.429 468.076L370.419 468.074C357.435 465.083 347.732 456.278 341.259 442.079C338.528 436.09 336.491 429.419 335.134 422.077C333.664 414.762 333.007 407.187 333.157 399.356L333.157 399.346C333.586 381.64 337.88 365.508 346.062 350.992L346.068 350.981C355.584 334.331 369.584 321.806 387.991 313.414ZM406.894 327.818C402.778 329.695 399.204 332.546 396.169 336.416C393.212 340.277 390.804 344.885 388.962 350.266C385.793 359.958 384.645 371.306 385.582 384.357L385.584 384.384C385.92 390.181 386.715 395.708 387.964 400.969L387.966 400.975C389.185 406.177 390.672 410.681 392.414 414.502C395.969 422.298 400.031 426.209 404.352 427.226L404.771 427.316L404.832 427.327L404.892 427.342C406.502 427.755 408.065 427.764 409.612 427.381C411.346 426.952 413.247 426.272 415.32 425.327C417.567 424.303 419.752 422.776 421.871 420.71L421.889 420.693C424.112 418.577 426.071 416.12 427.762 413.312C431.458 406.822 432.761 400.039 431.711 392.894L422.073 329.885C421.843 329.492 421.418 328.992 420.677 328.406L420.59 328.338L420.512 328.261C419.769 327.528 418.876 326.919 417.814 326.439C414.783 325.511 411.188 325.86 406.894 327.818Z" fill="#F20000" stroke="black" stroke-width="4"/>
<path d="M282.611 304.253L305.743 455.921L305.761 456.033L305.764 456.146C305.846 458.299 306.532 460.904 307.942 463.998C309.324 467.028 310.988 468.308 312.772 468.609C314.981 468.91 318.312 468.219 322.957 466.101C325.99 464.718 328.69 462.894 331.068 460.627C333.548 458.199 335.592 455.511 337.203 452.564C340.505 446.522 342.034 439.798 341.759 432.342L341.71 431.004L359.746 422.78L359.699 425.941C359.472 441.435 356.526 455.129 350.803 466.974L350.796 466.989L350.788 467.004C345.867 476.77 339.151 485.246 330.657 492.424C324.479 497.645 317.523 502.014 309.8 505.535C298.955 510.48 289.049 512.093 280.188 510.08L280.188 510.079C270.203 507.892 262.837 501.408 258.084 490.983C255.846 486.074 254.197 480.067 253.103 473.006L253.102 472.999L231.804 332.228L231.602 330.887L232.773 330.203L279.625 302.828L282.167 301.342L282.611 304.253Z" fill="#F20000" stroke="black" stroke-width="4"/>
<path d="M35.1257 368.811L33.6634 370.176C33.6639 370.176 33.6649 370.178 33.6659 370.179C33.668 370.181 33.6716 370.184 33.6756 370.188C33.684 370.197 33.6968 370.211 33.7135 370.229C33.7468 370.265 33.7967 370.318 33.8621 370.388C33.9933 370.529 34.1883 370.738 34.4424 371.011C34.9504 371.556 35.6957 372.355 36.644 373.373C38.5411 375.408 41.2519 378.317 44.5052 381.808C46.3618 383.801 48.3936 385.985 50.5536 388.304L40.2535 398.465L39.1091 399.594L39.9657 400.955L41.6585 399.889C40.0552 400.899 39.9712 400.952 39.9674 400.956C39.9679 400.957 39.9686 400.959 39.9695 400.961C39.9712 400.963 39.9737 400.967 39.9765 400.971C39.9825 400.981 39.9913 400.994 40.0022 401.011C40.0241 401.046 40.0563 401.095 40.0974 401.159C40.1794 401.286 40.2984 401.469 40.4525 401.7C40.7609 402.162 41.2085 402.819 41.7716 403.605C42.8955 405.173 44.4922 407.273 46.3713 409.385C48.2424 411.488 50.4411 413.656 52.7766 415.317C53.2331 415.642 53.7042 415.953 54.1863 416.244C56.3331 424.558 59.6843 432.284 64.7598 438.467C70.5773 445.554 78.691 452.097 87.3873 457.555L92.4735 476.263L96.3999 475.623C96.3999 475.623 96.4 475.622 96.4 475.621C96.3998 475.619 96.3997 475.615 96.3995 475.61C96.3989 475.6 96.3972 475.583 96.396 475.561C96.3937 475.515 96.3913 475.445 96.3873 475.353C96.3793 475.168 96.3685 474.892 96.3594 474.536C96.341 473.824 96.3272 472.794 96.3472 471.539C96.3838 469.245 96.5345 466.221 96.9645 463.02C99.9769 464.578 102.984 465.992 105.921 467.235C113.305 470.358 120.368 472.472 126.053 473.161C128.889 473.505 131.493 473.508 133.662 473.036C134.398 472.877 135.11 472.654 135.775 472.358L150.978 574.719L151.369 577.346L202.981 553.814L202.76 552.326L187.265 448.047L235.734 425.948L235.517 424.462L232.452 403.565L232.065 400.932L183.574 423.04L175.661 371.663C194.042 366.881 209.804 361.505 222.927 355.522L223.066 355.458L223.195 355.373C229.156 351.454 233.657 347.328 236.568 342.958L236.571 342.953C241.454 335.582 243.502 327.6 242.658 319.078L242.656 319.05L242.652 319.021C242.151 315.092 241.916 311.927 241.928 309.502L241.95 305.326L238.683 307.927C231.668 313.513 222.34 318.979 210.653 324.308C204.849 326.954 199.577 329.163 194.834 330.938L194.82 330.944L194.804 330.95C191.734 332.156 185.001 334.642 174.574 338.417L174.566 338.421L174.558 338.424L165.878 341.65C161.894 343.07 157.983 344.655 154.149 346.403C149.288 348.619 144.558 350.344 139.953 351.992C135.373 353.632 130.881 355.208 126.631 357.099C122.645 358.873 118.845 360.935 115.295 363.62C115.144 363.139 114.993 362.656 114.845 362.172C112.881 355.764 111.123 349.245 109.856 344.323C109.222 341.863 108.713 339.805 108.361 338.363C108.185 337.642 108.049 337.076 107.957 336.69C107.911 336.497 107.876 336.349 107.853 336.25C107.841 336.2 107.832 336.162 107.826 336.137C107.823 336.125 107.821 336.117 107.819 336.111C107.818 336.108 107.818 336.105 107.818 336.103L107.817 336.102L107.005 332.628L104.466 335.132L87.3589 352.004C87.6072 351.472 87.8007 350.919 87.9238 350.341C88.4692 347.78 87.5837 345.265 85.5469 342.926C85.6164 343.006 85.5561 342.956 85.3881 342.578C85.2429 342.251 85.0677 341.797 84.8656 341.208C84.4625 340.034 83.9884 338.442 83.4563 336.507C82.3934 332.642 81.1306 327.528 79.777 321.909C77.0785 310.708 74.022 297.506 71.5403 288.54C70.3198 284.131 69.1759 280.501 68.2212 278.69C67.9901 278.251 67.6618 277.703 67.2087 277.298C66.9752 277.089 66.5609 276.783 65.9736 276.679C65.294 276.559 64.6549 276.758 64.1761 277.132C63.7639 277.453 63.5337 277.851 63.407 278.119C63.2712 278.406 63.1793 278.706 63.1121 278.981C62.9777 279.531 62.8921 280.201 62.8367 280.955C62.6168 283.947 62.793 289.5 63.4387 298.252C64.0877 307.049 65.2203 319.194 66.9495 335.443C67.8836 344.22 68.5634 352.091 69.0232 359.139C67.7623 359.575 66.4572 359.994 65.1218 360.399L59.5428 339.871L55.6627 339.951L57.6129 340.396C55.663 339.951 55.6625 339.951 55.6623 339.952C55.6621 339.953 55.662 339.954 55.6617 339.956C55.6611 339.958 55.6601 339.962 55.6591 339.966C55.657 339.976 55.6541 339.989 55.6503 340.006C55.6425 340.041 55.6315 340.092 55.6168 340.159C55.5874 340.292 55.5441 340.488 55.4896 340.744C55.3807 341.255 55.2248 342.004 55.0358 342.966C54.6577 344.89 54.1467 347.665 53.6091 351.084C53.0447 354.674 52.4517 358.978 51.9538 363.758C49.245 364.345 46.6726 364.851 44.381 365.272C41.5614 365.79 39.176 366.18 37.4972 366.44C36.658 366.57 35.9952 366.668 35.5442 366.733C35.3191 366.765 35.1467 366.79 35.0312 366.806C34.9734 366.814 34.9294 366.819 34.9007 366.823C34.8868 366.825 34.8764 366.827 34.8696 366.828C34.8661 366.828 34.8628 366.828 34.8612 366.828L34.8603 366.829L35.1257 368.811ZM35.1257 368.811L34.8595 366.829L31.0232 367.344L33.663 370.175L35.1257 368.811ZM113.364 370.606C111.279 372.709 109.32 375.145 107.495 378.021C102.822 385.381 102.59 393.814 105.007 402.75C107.432 411.718 112.475 420.982 118.051 429.738C120.831 434.104 123.723 438.31 126.461 442.269C128.671 445.464 130.79 448.513 132.651 451.329L123.316 388.471C123.171 388.424 123.029 388.369 122.891 388.306C122.057 387.926 121.356 387.281 120.774 386.606C119.605 385.25 118.473 383.235 117.396 380.928C116.047 378.036 114.681 374.453 113.364 370.606ZM90.8336 454.985C91.8926 455.631 92.9601 456.262 94.0329 456.875C94.5881 454.576 95.325 452.294 96.3056 450.207C97.5661 447.524 99.2846 445.046 101.636 443.306C101.23 442.862 100.754 442.339 100.211 441.748C98.2919 439.662 95.5625 436.711 92.2934 433.184C89.215 429.863 85.658 426.033 81.8495 421.935L90.8336 454.985ZM81.2315 358.047C78.9344 359.454 76.1799 360.728 73.2007 361.876C73.278 363.201 73.3464 364.497 73.4077 365.764L81.2315 358.047Z" fill="#F20000" stroke="black" stroke-width="4"/>
</g>
<defs>
<filter id="filter0_d_75_156" x="22.9213" y="164.812" width="769.987" height="423.457" filterUnits="userSpaceOnUse" color-interpolation-filters="sRGB">
<feFlood flood-opacity="0" result="BackgroundImageFix"/>
<feColorMatrix in="SourceAlpha" type="matrix" values="0 0 0 0 0 0 0 0 0 0 0 0 0 0 0 0 0 0 127 0" result="hardAlpha"/>
<feOffset dy="4"/>
<feGaussianBlur stdDeviation="2"/>
<feComposite in2="hardAlpha" operator="out"/>
<feColorMatrix type="matrix" values="0 0 0 0 0 0 0 0 0 0 0 0 0 0 0 0 0 0 1 0"/>
<feBlend mode="normal" in2="BackgroundImageFix" result="effect1_dropShadow_75_156"/>
<feBlend mode="normal" in="SourceGraphic" in2="effect1_dropShadow_75_156" result="shape"/>
</filter>
</defs>
</svg>
