<?xml version="1.0" encoding="UTF-8"?><svg id="_レイヤー_2" xmlns="http://www.w3.org/2000/svg" viewBox="0 0 500 500"><defs><style>.cls-1{fill:#fe2d18;}.cls-1,.cls-2,.cls-3,.cls-4,.cls-5{stroke-width:0px;}.cls-2{fill:#ff5723;}.cls-3{fill:#ffae48;}.cls-4{fill:#c1b89d;}.cls-5{fill:#fff;}</style></defs><g id="_レイヤー_1-2"><path class="cls-2" d="M250.25.25c66.53711.06348,129.07812,25.96875,176.17285,72.97314l-176.17285,176.17334V.25Z"/><path class="cls-5" d="M250.5.50049c33.5061.0649,66.00928,6.6605,96.61646,19.60625,29.55786,12.50194,56.11792,30.3708,78.95264,53.11688l-175.56909,175.56924V.50049M250,0v250l176.77661-176.77673C381.53552,27.98217,319.03552,0,250,0h0Z"/><path class="cls-4" d="M73.57715,73.22314C120.67188,26.21875,183.21289.31348,249.75.25v249.14648L73.57715,73.22314Z"/><path class="cls-5" d="M249.5.50049v248.29238L73.93091,73.22362c22.83472-22.74608,49.39478-40.61494,78.95264-53.11688C183.49072,7.16099,215.9939.56538,249.5.50049M250,0C180.96448,0,118.46448,27.98217,73.22339,73.22327l176.77661,176.77673V0h0Z"/><path class="cls-4" d="M.25,249.75c.06348-66.53809,25.96875-129.07861,72.97363-176.17334l176.17285,176.17334H.25Z"/><path class="cls-5" d="M73.22375,73.93075l175.56909,175.56925H.50049c.06494-33.50607,6.66052-66.00934,19.6062-96.61653,12.50208-29.55791,30.37097-56.118,53.11707-78.95272M73.22339,73.22327C27.98218,118.46436,0,180.96437,0,250h250L73.22339,73.22327h0Z"/><path class="cls-2" d="M250.60352,249.75l176.17285-176.17334c47.00488,47.09473,72.91016,109.63525,72.97363,176.17334h-249.14648Z"/><path class="cls-5" d="M426.77625,73.93075c22.74609,22.83472,40.61499,49.39481,53.11707,78.95272,12.94568,30.60719,19.54126,63.11046,19.6062,96.61653h-248.29236l175.56909-175.56925M426.77661,73.22327l-176.77661,176.77673h250c0-69.03563-27.98218-131.53564-73.22339-176.77673h0Z"/><path class="cls-1" d="M250.60352,250.25h249.14648c-.06348,66.53809-25.96875,129.07812-72.97363,176.17285l-176.17285-176.17285Z"/><path class="cls-5" d="M499.49951,250.5c-.06494,33.50604-6.66052,66.00931-19.6062,96.61646-12.50208,29.55795-30.37097,56.11801-53.11707,78.95273l-175.56909-175.56918h248.29236M500,250h-250l176.77661,176.77667c45.24121-45.24109,73.22339-107.74109,73.22339-176.77667h0Z"/><path class="cls-1" d="M250.25,250.60352l176.17285,176.17285c-47.09473,47.00488-109.63477,72.91016-176.17285,72.97363v-249.14648Z"/><path class="cls-5" d="M250.5,251.20714l175.56909,175.56917c-22.83472,22.74612-49.39478,40.61499-78.95264,53.11691-30.60718,12.9458-63.11047,19.54138-96.61646,19.60629v-248.29237M250,250v250c69.03552,0,131.53552-27.98224,176.77661-73.22333l-176.77661-176.77667h0Z"/><path class="cls-3" d="M249.75,499.75c-66.53711-.06348-129.07812-25.96875-176.17285-72.97363l176.17285-176.17285v249.14648Z"/><path class="cls-5" d="M249.5,251.20714v248.29237c-33.50598-.06491-66.00928-6.66049-96.61646-19.60629-29.55786-12.50192-56.11792-30.37079-78.95264-53.11691l175.56909-175.56917M250,250l-176.77661,176.77667c45.24109,45.24109,107.74109,73.22333,176.77661,73.22333v-250h0Z"/><path class="cls-3" d="M73.22363,426.42285C26.21875,379.32812.31348,316.78809.25,250.25h249.14648l-176.17285,176.17285Z"/><path class="cls-5" d="M248.79285,250.5l-175.56909,175.56918c-22.74609-22.83472-40.61499-49.39478-53.11707-78.95273C7.16101,316.50931.56543,284.00604.50049,250.5h248.29236M250,250H0c0,69.03558,27.98218,131.53558,73.22339,176.77667l176.77661-176.77667h0Z"/></g></svg>