<?xml version="1.0" encoding="UTF-8"?><svg id="_レイヤー_2" xmlns="http://www.w3.org/2000/svg" viewBox="0 0 500 500"><defs><style>.cls-1{fill:#c1b89d;}.cls-1,.cls-2{stroke-width:0px;}.cls-2{fill:#fff;}</style></defs><g id="_レイヤー_1-2"><path class="cls-1" d="M250.25.25c66.53711.06348,129.07812,25.96875,176.17285,72.97314l-176.17285,176.17334V.25Z"/><path class="cls-2" d="M250.5.50049c33.50604.0649,66.00928,6.6605,96.61646,19.60625,29.55792,12.50191,56.11798,30.3708,78.95273,53.11688l-175.56918,175.56924V.50049M250,0v250l176.77667-176.77673C381.53552,27.98217,319.03558,0,250,0h0Z"/><path class="cls-1" d="M73.57666,73.22314C120.67139,26.21875,183.2124.31348,249.75.25v249.14648L73.57666,73.22314Z"/><path class="cls-2" d="M249.5.50049v248.29238L73.93081,73.22362c22.83475-22.74608,49.39481-40.61498,78.95272-53.11688C183.49072,7.16099,215.99396.56538,249.5.50049M250,0C180.96443,0,118.46443,27.98217,73.22333,73.22327l176.77667,176.77673V0h0Z"/><path class="cls-1" d="M.25,249.75c.06348-66.5376,25.96875-129.07861,72.97314-176.17334l176.17334,176.17334H.25Z"/><path class="cls-2" d="M73.22368,73.93075l175.56918,175.56925H.50049c.0649-33.50607,6.6605-66.00931,19.60628-96.61653,12.50194-29.55791,30.3708-56.11797,53.11691-78.95272M73.22334,73.22327C27.98223,118.46436,0,180.96437,0,250h250L73.22334,73.22327h0Z"/><path class="cls-1" d="M250.60352,249.75l176.17285-176.17334c47.00488,47.09473,72.91016,109.63525,72.97363,176.17334h-249.14648Z"/><path class="cls-2" d="M426.77631,73.93075c22.74612,22.83475,40.61499,49.39481,53.11691,78.95272,12.9458,30.60722,19.54138,63.11046,19.60629,96.61653h-248.29237l175.56917-175.56925M426.77667,73.22327l-176.77667,176.77673h250c0-69.03563-27.98224-131.53564-73.22333-176.77673h0Z"/><path class="cls-1" d="M250.60352,250.25h249.14648c-.06348,66.53809-25.96875,129.07812-72.97363,176.17285l-176.17285-176.17285Z"/><path class="cls-2" d="M499.49951,250.5c-.06491,33.50604-6.66049,66.00928-19.60629,96.61646-12.50192,29.55792-30.37079,56.11798-53.11691,78.95273l-175.56917-175.56918h248.29237M500,250h-250l176.77667,176.77667c45.24109-45.24109,73.22333-107.74109,73.22333-176.77667h0Z"/><path class="cls-1" d="M250.25,250.60352l176.17285,176.17285c-47.09473,47.00488-109.63477,72.91016-176.17285,72.97363v-249.14648Z"/><path class="cls-2" d="M250.5,251.20714l175.56918,175.56917c-22.83475,22.74612-49.39484,40.61499-78.95273,53.11691-30.60718,12.9458-63.11041,19.54138-96.61646,19.60629v-248.29237M250,250v250c69.03558,0,131.53552-27.98224,176.77667-73.22333l-176.77667-176.77667h0Z"/><path class="cls-1" d="M249.75,499.75c-66.53809-.06348-129.07861-25.96875-176.17334-72.97363l176.17334-176.17285v249.14648Z"/><path class="cls-2" d="M249.5,251.20714v248.29237c-33.50604-.06491-66.00928-6.66049-96.61647-19.60629-29.55791-12.50192-56.11797-30.37079-78.95272-53.11691l175.56919-175.56917M250,250l-176.77667,176.77667c45.2411,45.24109,107.7411,73.22333,176.77667,73.22333v-250h0Z"/><path class="cls-1" d="M73.22314,426.42285C26.21875,379.32812.31348,316.78711.25,250.25h249.14648l-176.17334,176.17285Z"/><path class="cls-2" d="M248.79286,250.5l-175.56918,175.56918c-22.74611-22.83475-40.61497-49.39481-53.11691-78.95273C7.16099,316.50928.56538,284.00604.50049,250.5h248.29238M250,250H0c0,69.03558,27.98223,131.53558,73.22334,176.77667l176.77666-176.77667h0Z"/></g></svg>