<svg width="201" height="91" viewBox="0 0 201 91" fill="none" xmlns="http://www.w3.org/2000/svg">
<g filter="url(#filter0_d_2_14)">
<path d="M174.335 42.2604C177.968 42.2604 181.056 42.878 183.216 44.4704L183.422 44.6276L183.428 44.6325L183.433 44.6364C185.261 46.0993 186.081 48.1916 186.081 50.5915C186.081 52.8799 185.407 55.0249 184.113 56.9889L184.106 56.9987C182.842 58.8922 181.127 60.5262 179.016 61.9186L179.002 61.9264C176.905 63.2863 174.549 64.3619 171.949 65.1638L171.942 65.1667L171.934 65.1686C169.873 65.7861 167.757 66.1997 165.588 66.4138C165.567 66.7201 165.554 66.9789 165.554 67.1931C165.554 68.8498 165.926 69.593 166.255 69.9294L166.392 70.0495L166.404 70.0583L166.414 70.0671C166.821 70.3811 167.839 70.7487 169.937 70.7487C172.85 70.7487 175.464 70.1608 177.813 69.0134L177.825 69.0075C178.844 68.5187 179.825 67.9407 180.77 67.2722C181.757 66.5525 182.923 65.6373 184.273 64.5212L184.827 64.0632H192.694L190.136 67.3024C187.202 71.0176 183.807 74.0005 179.948 76.2253L179.94 76.2302C175.17 78.9496 169.94 80.3044 164.287 80.3044C159.735 80.3044 155.923 79.453 153.099 77.4929L153.095 77.4899C149.953 75.2986 148.488 71.9391 148.488 67.8073C148.488 66.2712 148.698 64.6132 149.097 62.8454C149.472 61.0565 150.044 59.2793 150.809 57.5153L150.81 57.5134C151.678 55.5171 152.776 53.6286 154.102 51.8503L154.115 51.8327C155.49 50.0317 157.083 48.4405 158.892 47.0622L158.894 47.0612C163.149 43.8262 168.338 42.2604 174.335 42.2604ZM175.069 49.7487C174.518 49.7487 173.84 49.9431 173.002 50.5348C172.146 51.1608 171.254 52.0626 170.342 53.2907C169.51 54.4417 168.742 55.7678 168.043 57.277C167.802 57.7986 167.578 58.3236 167.372 58.8513C167.75 58.7372 168.127 58.6079 168.5 58.4577C169.87 57.9069 171.065 57.1945 172.102 56.3259C173.132 55.4408 173.912 54.4817 174.471 53.4538C175.019 52.4252 175.268 51.4349 175.268 50.4616C175.268 50.1446 175.236 49.9316 175.201 49.7995C175.197 49.7817 175.19 49.7666 175.186 49.7526C175.153 49.7504 175.114 49.7487 175.069 49.7487Z" fill="white" stroke="#DB0606" stroke-width="4"/>
<path d="M139.781 42.8419L139.277 44.6895C139.58 44.5367 139.87 44.3956 140.148 44.2725L140.157 44.2686L140.167 44.2637C142.337 43.3316 144.517 42.8419 146.693 42.8419C148.953 42.8419 150.983 43.4524 152.578 44.8536H152.579C153.304 45.4872 153.872 46.2485 154.254 47.129C154.632 47.9788 154.816 48.8828 154.816 49.8165C154.816 50.7157 154.621 51.5829 154.243 52.3995C153.854 53.2419 153.284 53.9683 152.579 54.584L152.558 54.6036L152.535 54.6221C151.741 55.2763 150.811 55.7607 149.787 56.1045L149.786 56.1036C148.742 56.4639 147.616 56.6289 146.434 56.629C145.523 56.629 144.607 56.5193 143.803 56.1807C143.039 55.8588 142.366 55.3574 141.867 54.6524L141.836 54.6085L141.808 54.5626C141.499 54.0706 141.25 53.5387 141.101 52.9708L140.937 52.4337C140.918 52.378 140.897 52.3271 140.879 52.2784C140.057 52.3166 139.436 52.4662 138.974 52.6739C138.382 52.94 137.596 53.385 136.601 54.0391L129.729 78.459L129.319 79.917H112.438L113.157 77.3721L122.516 44.2969L122.928 42.8419H139.781Z" fill="white" stroke="#DB0606" stroke-width="4"/>
<path d="M93.5203 42.5189C96.0127 42.5189 98.1902 42.8333 99.8035 43.6878L99.8025 43.6888C99.8213 43.6983 99.8394 43.7093 99.8582 43.7191L100.095 42.8421H116.991L116.274 45.3851L109.934 67.8655L109.906 67.9671L109.866 68.0657C109.712 68.4497 109.622 68.905 109.622 69.4544C109.622 69.7183 109.664 69.8566 109.689 69.9153C109.709 69.9618 109.727 69.9859 109.761 70.013C109.862 70.0915 110.244 70.2962 111.244 70.2962C112.287 70.2962 113.281 69.9184 114.282 68.9896L114.287 68.9847C115.117 68.219 115.89 67.0498 116.533 65.3538L117.022 64.0628H125.263L123.921 66.9144C122.25 70.4636 120.187 73.367 117.692 75.5472L117.682 75.555L117.673 75.5638C115.564 77.3589 113.174 78.6556 110.521 79.4456L110.515 79.4476C108.566 80.022 106.52 80.304 104.387 80.304C101.636 80.304 99.2032 79.7498 97.2722 78.4427L97.241 78.4212C96.2262 77.7059 95.4326 76.8186 94.8474 75.7903C93.7488 76.6998 92.6068 77.4787 91.4187 78.1194C88.7433 79.5856 85.7781 80.304 82.5662 80.304C78.895 80.3039 75.715 79.444 73.2068 77.5394L73.199 77.5335C70.1884 75.2249 68.7938 71.8193 68.7937 67.678C68.7937 65.9516 69.0334 64.1611 69.4939 62.3128C69.9311 60.4418 70.5837 58.6035 71.448 56.8001L71.4529 56.7913C73.4261 52.7271 76.1472 49.4067 79.6208 46.8753L79.6306 46.8685C83.6715 43.9602 88.3262 42.5189 93.5203 42.5189ZM96.2371 50.6214C95.4015 50.6214 94.5654 50.8242 93.7078 51.2689C92.8393 51.734 91.9797 52.3967 91.1355 53.2894C89.6335 54.9268 88.3364 57.1228 87.2869 59.9446L87.283 59.9573L87.2771 59.97C86.799 61.2035 86.4453 62.4156 86.2107 63.6067L86.2097 63.6136C85.9708 64.8065 85.8601 65.8461 85.8601 66.7415C85.8602 68.4613 86.2426 69.1739 86.5369 69.4661L86.656 69.5677L86.7068 69.6028L86.7546 69.6419C86.8779 69.7413 86.9918 69.7902 87.1179 69.8138C87.4327 69.8727 87.8243 69.9095 88.3025 69.9095C88.7002 69.9094 89.1606 69.8311 89.6951 69.639L89.7185 69.6312C90.2785 69.4376 90.829 69.1601 91.3718 68.7903C92.565 67.9256 93.3238 66.8458 93.7117 65.5062L97.783 51.1312L97.7751 51.1107C97.7592 51.0689 97.7318 51.0214 97.6902 50.9642C97.4515 50.7913 97.0266 50.6214 96.2371 50.6214Z" fill="white" stroke="#DB0606" stroke-width="4"/>
<path d="M72.6912 31.8502L62.5564 67.5739L62.5261 67.6833L62.4832 67.7877C62.3847 68.0274 62.2878 68.4574 62.2878 69.1598C62.2879 69.2863 62.2973 69.375 62.3074 69.4333C62.5166 69.507 62.9841 69.6149 63.8669 69.6149C64.5073 69.6149 65.1176 69.5111 65.7078 69.3063C66.353 69.0709 66.9329 68.7578 67.4548 68.3668C68.5544 67.5433 69.4041 66.4423 69.9958 65.0065L70.5056 63.7682H78.7146L77.3611 66.6247C75.6786 70.176 73.5288 73.0855 70.8796 75.2848L70.8542 75.3063C68.628 77.0928 66.1139 78.3778 63.3298 79.1598C61.3048 79.7286 59.196 80.0094 57.0105 80.0094C53.9199 80.0094 51.2201 79.326 49.1267 77.736V77.737C46.7014 75.9202 45.5662 73.2656 45.5662 70.0963C45.5662 68.6121 45.8379 66.981 46.3308 65.2272L46.3328 65.2204L55.7771 32.0807L56.1492 30.776L57.4988 30.6393L70.5652 29.3141L73.4949 29.0172L72.6912 31.8502Z" fill="white" stroke="#DB0606" stroke-width="4"/>
<path d="M25.4978 2.05714C26.0243 1.93117 26.6319 2.00601 27.1511 2.3628C27.5926 2.66633 27.8003 3.05771 27.8904 3.26319C28.0632 3.65729 28.0894 4.03771 28.0984 4.19386C28.1379 4.88332 27.9915 5.968 27.824 7.021C27.465 9.27794 26.8041 12.5366 26.2791 15.2466C26.0129 16.6202 25.7813 17.8523 25.6316 18.7837C25.5563 19.2522 25.5067 19.6144 25.4822 19.8667C25.4774 19.9157 25.4757 19.9562 25.4734 19.9888L28.3787 18.9263L31.7292 17.7007L31.0271 21.1978V21.1997C31.0269 21.201 31.0257 21.203 31.0251 21.2056C31.024 21.2111 31.0225 21.2197 31.0203 21.231C31.0157 21.254 31.0087 21.2887 30.9998 21.3345C30.9817 21.4264 30.9558 21.5631 30.9226 21.7368C30.8563 22.0843 30.7631 22.5825 30.657 23.1802C30.5171 23.968 30.356 24.9237 30.2029 25.9341C30.6675 25.9032 31.1296 25.8928 31.5896 25.897C32.7847 25.9078 33.9968 26.0177 35.1492 26.1148C36.3276 26.214 37.4867 26.3042 38.7097 26.3042C39.7731 26.3042 40.8394 26.35 41.9021 26.4409L44.115 26.6001L44.1228 26.6011H44.1316C46.1418 26.763 47.6068 26.8748 48.5398 26.938L49.2957 26.9858L49.3123 26.9868L49.3279 26.9878C50.508 27.07 51.8548 27.1118 53.3718 27.1118C56.403 27.1118 58.8742 26.85 60.822 26.3638L64.8748 25.3521L63.1228 29.1431C62.9156 29.5914 62.6716 30.2429 62.3972 31.1265L62.3894 31.1528L62.3806 31.1792C61.5932 33.4847 60.1093 35.3125 58.0105 36.6226L58.0056 36.6255C56.6959 37.4382 55.0754 37.9427 53.2468 38.2261L53.0945 38.2505H52.9412C49.6976 38.2505 46.0474 37.9163 42.0007 37.2632L39.4978 46.1362H52.4119L51.6707 48.6929L50.2478 53.603L49.8289 55.0464H36.9373L30.196 78.4702L29.7791 79.9165H12.8953L13.6306 77.3638L20.1277 54.7944C19.7391 54.6282 19.3618 54.4267 19.0046 54.2085C17.6585 53.3861 16.2067 52.1025 14.8396 50.6138C12.1208 47.653 9.36821 43.4739 8.31519 39.5093C7.79586 37.5539 7.79874 35.4914 8.09839 33.4761C7.70135 32.7659 7.41046 31.9917 7.2019 31.3159C6.97985 30.5964 6.82701 29.9188 6.73022 29.4263C6.68148 29.1782 6.64664 28.9719 6.6228 28.8247C6.61089 28.7511 6.60176 28.6916 6.59546 28.6489C6.59231 28.6276 6.58946 28.61 6.58765 28.5972C6.58676 28.5909 6.58627 28.5857 6.58569 28.5816C6.5854 28.5794 6.58493 28.5772 6.58472 28.5757V28.5737C6.59003 28.5722 6.69079 28.5576 8.56616 28.3042L6.58374 28.5718L6.3689 26.979L7.87866 26.4263L9.78296 25.729C9.70968 25.5095 9.6392 25.2954 9.57007 25.0884C9.20429 23.993 8.89966 23.0805 8.68628 22.4419C8.57963 22.1227 8.49636 21.8717 8.43921 21.7007C8.41065 21.6153 8.38854 21.5495 8.37378 21.5054C8.36647 21.4835 8.36093 21.4668 8.35718 21.4556C8.35533 21.45 8.35324 21.4457 8.35229 21.4429C8.3519 21.4417 8.35155 21.4406 8.35132 21.4399V21.439V21.438L7.12378 17.7671L10.8279 18.8901H10.8289C10.8299 18.8905 10.8319 18.8913 10.8347 18.8921C10.8403 18.8938 10.8498 18.8962 10.8621 18.8999C10.8869 18.9073 10.9251 18.9194 10.9753 18.9341C11.0763 18.9637 11.2268 19.0071 11.4187 19.061C11.8033 19.1691 12.3537 19.319 13.0105 19.4839C13.2385 19.5411 13.4792 19.5974 13.7283 19.6567C14.1228 19.0132 14.4972 18.43 14.8337 17.9204C15.3072 17.2036 15.7097 16.6283 15.9958 16.229C16.139 16.0292 16.2529 15.8729 16.3328 15.7651C16.3727 15.7113 16.4045 15.6694 16.4265 15.6401C16.4374 15.6257 16.4457 15.6142 16.4519 15.606C16.4549 15.602 16.4578 15.5987 16.4597 15.5962C16.4607 15.5949 16.462 15.5931 16.4626 15.5923V15.5913C16.463 15.5909 16.4638 15.5906 18.0535 16.8042L16.4636 15.5903L20.9333 9.73682L20.698 11.6597C21.2553 10.0455 21.7347 8.69575 22.1462 7.58253C22.8792 5.60001 23.4325 4.25881 23.8425 3.51026C23.9477 3.31829 24.0801 3.09604 24.24 2.89307C24.3201 2.7914 24.4412 2.65091 24.6042 2.51319C24.7512 2.38915 25.0536 2.16349 25.4978 2.05714ZM25.6335 31.7056C24.6165 32.5604 24.0081 33.8297 23.7253 35.5415C23.4165 37.412 23.5366 39.6157 23.8376 41.9087L26.0486 34.231C25.9667 34.0521 25.9082 33.8858 25.8679 33.7476C25.6866 33.1254 25.6393 32.3979 25.6335 31.7466C25.6334 31.733 25.6336 31.7193 25.6335 31.7056Z" fill="white" stroke="#DB0606" stroke-width="4"/>
</g>
<defs>
<filter id="filter0_d_2_14" x="0" y="0" width="200.822" height="90.3044" filterUnits="userSpaceOnUse" color-interpolation-filters="sRGB">
<feFlood flood-opacity="0" result="BackgroundImageFix"/>
<feColorMatrix in="SourceAlpha" type="matrix" values="0 0 0 0 0 0 0 0 0 0 0 0 0 0 0 0 0 0 127 0" result="hardAlpha"/>
<feOffset dy="4"/>
<feGaussianBlur stdDeviation="2"/>
<feComposite in2="hardAlpha" operator="out"/>
<feColorMatrix type="matrix" values="0 0 0 0 1 0 0 0 0 0.3 0 0 0 0 0 0 0 0 1 0"/>
<feBlend mode="normal" in2="BackgroundImageFix" result="effect1_dropShadow_2_14"/>
<feBlend mode="normal" in="SourceGraphic" in2="effect1_dropShadow_2_14" result="shape"/>
</filter>
</defs>
</svg>
